# xmcd CD database file
#
# Track frame offsets:
#	150
#	14731
#	28712
#	43379
#	59013
#	72734
#	88133
#	103238
#	116138
#	123187
#	136753
#	151295
#	166946
#	179728
#	196024
#	211233
#	226057
#	235997
#	250235
#	262208
#	273818
#	287891
#
# Disc length: 4012 seconds
#
# Revision: 0
# Processed by: cddbd v1.5.2PL0 Copyright (c) Steve Scherf et al.
# Submitted via: CDex 1.51
#
DISCID=520faa16
DTITLE=Patsy Montana - Singing With Her Guitar Vol.2
DYEAR=1900
DGENRE=Country
TTITLE0=How I Love My Saddle Songs/Round-up In Cheyenne
TTITLE1=Old Pal Of My Saddle Days/ Sing Me A Cowboy Song
TTITLE2=There's A Love Knot In My Lariat/ Daddy and Home
TTITLE3=Mexicali Rose/ Hillbilly Wedding In June
TTITLE4=Happy Joe/ Softly And Tenderly
TTITLE5=Utah Trail/ It Makes No Difference Now
TTITLE6=Montana Plains/ Put My Little Shoes Away
TTITLE7=There's A Letter In The Mailbox/ Out There In The Beautiful Hills
TTITLE8=I'll Keep On Loving You
TTITLE9=In The Cumberland Mountains/ Round-up Time In Heaven
TTITLE10=Silver Threads Among The Gold/ When The Moon Shines On Mississippi Valley
TTITLE11=Mother's Old Red Shawl/ Nancy Till Down In The Canebreak
TTITLE12=There's An Empty Cot In The Bunkhouse Tonight
TTITLE13=The West Is In My Soul/ I Miss You So My Darlin'
TTITLE14=When It's Prayer Meeting Time In The Hollow/ When It's Springtime In The Desert
TTITLE15=Froggie Went A Courtin'/ I'll Remember You Love In My Prayers
TTITLE16=When The Pale Moon Shines/ Arizona Yodeler
TTITLE17=New Frontier/ Sweet Kitty Wells
TTITLE18=Han'some Joe (From The Land Of The Navajo)
TTITLE19=Out On The Lone Prairie
TTITLE20=I Wanna To Be A Cowboy's Sweetheart No. 2
TTITLE21=Montana Plains
EXTD=
EXTT0=
EXTT1=
EXTT2=
EXTT3=
EXTT4=
EXTT5=
EXTT6=
EXTT7=
EXTT8=
EXTT9=
EXTT10=
EXTT11=
EXTT12=
EXTT13=
EXTT14=
EXTT15=
EXTT16=
EXTT17=
EXTT18=
EXTT19=
EXTT20=
EXTT21=
PLAYORDER=
